HIERARCHY
ROOT hip
{
OFFSET 0.40 88.69 -2.05
CHANNELS 6 Xposition Yposition Zposition Zrotation Xrotation Yrotation
JOINT abdomen
{
OFFSET 0 7.23 0
CHANNELS 6 Xposition Yposition Zposition Zrotation Xrotation Yrotation
JOINT chest
{
OFFSET 0 16.54 0
CHANNELS 6 Xposition Yposition Zposition Zrotation Xrotation Yrotation
JOINT neck
{
OFFSET 0 34.21 0
CHANNELS 6 Xposition Yposition Zposition Zrotation Xrotation Yrotation
JOINT head
{
OFFSET 0 6.29 0
CHANNELS 6 Xposition Yposition Zposition Zrotation Xrotation Yrotation
End Site
{
OFFSET 0 21.21 0
}
}
}
JOINT lCollar
{
OFFSET 4.06 26.61 -1.12
CHANNELS 6 Xposition Yposition Zposition Zrotation Xrotation Yrotation
JOINT lShldr
{
OFFSET 14.17 0 0
CHANNELS 6 Xposition Yposition Zposition Zrotation Xrotation Yrotation
JOINT lForeArm
{
OFFSET 26.12 0 0
CHANNELS 6 Xposition Yposition Zposition Zrotation Xrotation Yrotation
JOINT lHand
{
OFFSET 27.71 0 0
CHANNELS 6 Xposition Yposition Zposition Zrotation Xrotation Yrotation
JOINT lThumb1
{
OFFSET 2.29 -0.46 1.83
CHANNELS 6 Xposition Yposition Zposition Zrotation Xrotation Yrotation
JOINT lThumb2
{
OFFSET 5.29 0 0
CHANNELS 6 Xposition Yposition Zposition Zrotation Xrotation Yrotation
JOINT lThumb3
{
OFFSET 3.01 0 0
CHANNELS 6 Xposition Yposition Zposition Zrotation Xrotation Yrotation
End Site
{
OFFSET 2.62 0 0
}
}
}
}
JOINT lIndex1
{
OFFSET 9.37 0.29 2.59
CHANNELS 6 Xposition Yposition Zposition Zrotation Xrotation Yrotation
JOINT lIndex2
{
OFFSET 4.34 0 0
CHANNELS 6 Xposition Yposition Zposition Zrotation Xrotation Yrotation
JOINT lIndex3
{
OFFSET 2.16 0 0
CHANNELS 6 Xposition Yposition Zposition Zrotation Xrotation Yrotation
End Site
{
OFFSET 2.20 0 0
}
}
}
}
JOINT lMid1
{
OFFSET 9.47 0.83 0.29
CHANNELS 6 Xposition Yposition Zposition Zrotation Xrotation Yrotation
JOINT lMid2
{
OFFSET 4.77 0 0
CHANNELS 6 Xposition Yposition Zposition Zrotation Xrotation Yrotation
JOINT lMid3
{
OFFSET 2.87 0 0
CHANNELS 6 Xposition Yposition Zposition Zrotation Xrotation Yrotation
End Site
{
OFFSET 2.09 0 0
}
}
}
}
JOINT lRing1
{
OFFSET 8.65 1.01 -1.70
CHANNELS 6 Xposition Yposition Zposition Zrotation Xrotation Yrotation
JOINT lRing2
{
OFFSET 4.54 0 0
CHANNELS 6 Xposition Yposition Zposition Zrotation Xrotation Yrotation
JOINT lRing3
{
OFFSET 2.50 0 0
CHANNELS 6 Xposition Yposition Zposition Zrotation Xrotation Yrotation
End Site
{
OFFSET 2.20 0 0
}
}
}
}
JOINT lPinky1
{
OFFSET 7.69 0.66 -3.90
CHANNELS 6 Xposition Yposition Zposition Zrotation Xrotation Yrotation
JOINT lPinky2
{
OFFSET 3.21 0 0
CHANNELS 6 Xposition Yposition Zposition Zrotation Xrotation Yrotation
JOINT lPinky3
{
OFFSET 1.92 0 0
CHANNELS 6 Xposition Yposition Zposition Zrotation Xrotation Yrotation
End Site
{
OFFSET 1.78 0 0
}
}
}
}
}
}
}
}
JOINT rCollar
{
OFFSET -4.06 26.61 -1.12
CHANNELS 6 Xposition Yposition Zposition Zrotation Xrotation Yrotation
JOINT rShldr
{
OFFSET -14.17 0 0
CHANNELS 6 Xposition Yposition Zposition Zrotation Xrotation Yrotation
JOINT rForeArm
{
OFFSET -26.12 0 0
CHANNELS 6 Xposition Yposition Zposition Zrotation Xrotation Yrotation
JOINT rHand
{
OFFSET -27.71 0 0
CHANNELS 6 Xposition Yposition Zposition Zrotation Xrotation Yrotation
JOINT rThumb1
{
OFFSET -2.29 -0.46 1.83
CHANNELS 6 Xposition Yposition Zposition Zrotation Xrotation Yrotation
JOINT rThumb2
{
OFFSET -5.29 0 0
CHANNELS 6 Xposition Yposition Zposition Zrotation Xrotation Yrotation
JOINT rThumb3
{
OFFSET -3.01 0 0
CHANNELS 6 Xposition Yposition Zposition Zrotation Xrotation Yrotation
End Site
{
OFFSET -2.62 0 0
}
}
}
}
JOINT rIndex1
{
OFFSET -9.37 0.29 2.59
CHANNELS 6 Xposition Yposition Zposition Zrotation Xrotation Yrotation
JOINT rIndex2
{
OFFSET -4.34 0 0
CHANNELS 6 Xposition Yposition Zposition Zrotation Xrotation Yrotation
JOINT rIndex3
{
OFFSET -2.16 0 0
CHANNELS 6 Xposition Yposition Zposition Zrotation Xrotation Yrotation
End Site
{
OFFSET -2.20 0 0
}
}
}
}
JOINT rMid1
{
OFFSET -9.47 0.83 0.29
CHANNELS 6 Xposition Yposition Zposition Zrotation Xrotation Yrotation
JOINT rMid2
{
OFFSET -4.77 0 0
CHANNELS 6 Xposition Yposition Zposition Zrotation Xrotation Yrotation
JOINT rMid3
{
OFFSET -2.87 0 0
CHANNELS 6 Xposition Yposition Zposition Zrotation Xrotation Yrotation
End Site
{
OFFSET -2.09 0 0
}
}
}
}
JOINT rRing1
{
OFFSET -8.65 1.01 -1.70
CHANNELS 6 Xposition Yposition Zposition Zrotation Xrotation Yrotation
JOINT rRing2
{
OFFSET -4.54 0 0
CHANNELS 6 Xposition Yposition Zposition Zrotation Xrotation Yrotation
JOINT rRing3
{
OFFSET -2.50 0 0
CHANNELS 6 Xposition Yposition Zposition Zrotation Xrotation Yrotation
End Site
{
OFFSET -2.20 0 0
}
}
}
}
JOINT rPinky1
{
OFFSET -7.69 0.66 -3.90
CHANNELS 6 Xposition Yposition Zposition Zrotation Xrotation Yrotation
JOINT rPinky2
{
OFFSET -3.21 0 0
CHANNELS 6 Xposition Yposition Zposition Zrotation Xrotation Yrotation
JOINT rPinky3
{
OFFSET -1.92 0 0
CHANNELS 6 Xposition Yposition Zposition Zrotation Xrotation Yrotation
End Site
{
OFFSET -1.78 0 0
}
}
}
}
}
}
}
}
}
}
JOINT lThigh
{
OFFSET 8.73 -0 0
CHANNELS 6 Xposition Yposition Zposition Zrotation Xrotation Yrotation
JOINT lShin
{
OFFSET 0 -46.66 0
CHANNELS 6 Xposition Yposition Zposition Zrotation Xrotation Yrotation
JOINT lFoot
{
OFFSET 0 -40.14 0
CHANNELS 6 Xposition Yposition Zposition Zrotation Xrotation Yrotation
JOINT lToes
{
OFFSET 0 -8.88 14.22
CHANNELS 6 Xposition Yposition Zposition Zrotation Xrotation Yrotation
End Site
{
OFFSET 0 0 6.29
}
}
}
}
}
JOINT rThigh
{
OFFSET -8.73 0 -0
CHANNELS 6 Xposition Yposition Zposition Zrotation Xrotation Yrotation
JOINT rShin
{
OFFSET 0 -46.66 0
CHANNELS 6 Xposition Yposition Zposition Zrotation Xrotation Yrotation
JOINT rFoot
{
OFFSET 0 -40.14 0
CHANNELS 6 Xposition Yposition Zposition Zrotation Xrotation Yrotation
JOINT rToes
{
OFFSET 0 -8.88 14.22
CHANNELS 6 Xposition Yposition Zposition Zrotation Xrotation Yrotation
End Site
{
OFFSET 0 0 6.29
}
}
}
}
}
}
MOTION
Frames: 7
Frame Time: 0.03
0.40 88.69 -2.05 1.42 9.04 -29.70 0 7.23 0 0.42 0.42 0.09 0 16.54 0 0.55 2.70 0.07 0 34.21 0 -10.37 41.17 7.80 0 6.29 0 -9.46 -19.49 17.15 4.06 26.61 -1.12 -7.59 -0.90 -11.46 14.17 0 0 -61.97 -33.88 -48.86 26.12 0 0 -0.83 1.09 -105.42 27.71 0 0 -31.54 -20.18 -36.89 2.29 -0.46 1.83 -34.50 82.28 -2.18 5.29 0 0 -58.93 -22.63 15.88 3.01 0 0 -14.63 -6.25 14.01 9.37 0.29 2.59 -95.00 -13.32 11.82 4.34 0 0 -92.51 -13.40 13.08 2.16 0 0 -48.54 -4.31 9.09 9.47 0.83 0.29 -94.39 -16.05 11.97 4.77 0 0 -91.00 -16.37 16.18 2.87 0 0 -41.82 -3.96 12.14 8.65 1.01 -1.70 -95.81 -9.49 11.66 4.54 0 0 -94.01 -9.61 8.96 2.50 0 0 -40.33 -2.07 6.85 7.69 0.66 -3.90 -91.90 -20.21 16.63 3.21 0 0 -89.29 -16.96 21.47 1.92 0 0 -40.01 -4.94 15.30 -4.06 26.61 -1.12 4.46 1.11 27.41 -14.17 0 0 54.70 -15.06 37.77 -26.12 0 0 0.85 0.98 98.16 -27.71 0 0 9.65 -5.26 19.99 -2.29 -0.46 1.83 -144.33 71.58 -171.00 -5.29 0 0 87.24 35.98 -0.68 -3.01 0 0 22.67 20.65 -11.14 -9.37 0.29 2.59 89.61 -12.29 -11.86 -4.34 0 0 94.87 -14.01 -13.12 -2.16 0 0 49.70 -4.53 -9.31 -9.47 0.83 0.29 89.01 -15.03 -12.00 -4.77 0 0 93.31 -17.09 -16.23 -2.87 0 0 42.96 -4.20 -12.43 -8.65 1.01 -1.70 90.42 -8.47 -11.72 -4.54 0 0 96.41 -10.06 -8.99 -2.50 0 0 41.52 -2.20 -7.05 -7.69 0.66 -3.90 87.99 -19.55 -12.31 -3.21 0 0 90.06 -21.69 -21.67 -1.92 0 0 41.11 -5.22 -15.67 8.73 -0 0 31.26 -28.29 34.73 0 -46.66 0 -1.67 43.55 -2.92 0 -40.14 0 -10.31 -13.11 29.63 0 -8.88 14.22 0 0 0 -8.73 0 -0 -12.69 -30.76 -15.88 0 -46.66 0 -8.64 43.15 -3.56 0 -40.14 0 16.19 -16.14 6.54 0 -8.88 14.22 0 0 0 
0.78 88.28 -2.49 2.02 9.59 -32.98 0 7.23 0 0.25 0.60 -0.01 0 16.54 0 0.14 3.05 -0.12 0 34.21 0 -10.92 40.74 8.33 0 6.29 0 -10.06 -20.59 18.91 4.06 26.61 -1.12 -7.58 -0.78 -12.32 14.17 0 0 -65.06 -35.34 -51.69 26.12 0 0 -0.82 1.09 -105.56 27.71 0 0 -32.22 -20.37 -37.14 2.29 -0.46 1.83 -34.50 82.28 -2.18 5.29 0 0 -58.93 -22.63 15.88 3.01 0 0 -14.63 -6.25 14.01 9.37 0.29 2.59 -95.00 -13.32 11.82 4.34 0 0 -92.51 -13.40 13.08 2.16 0 0 -48.54 -4.31 9.09 9.47 0.83 0.29 -94.39 -16.05 11.97 4.77 0 0 -91.00 -16.37 16.18 2.87 0 0 -41.82 -3.96 12.14 8.65 1.01 -1.70 -95.81 -9.49 11.66 4.54 0 0 -94.01 -9.61 8.96 2.50 0 0 -40.33 -2.07 6.85 7.69 0.66 -3.90 -91.90 -20.21 16.63 3.21 0 0 -89.29 -16.96 21.47 1.92 0 0 -40.01 -4.94 15.30 -4.06 26.61 -1.12 4.68 1.45 28.93 -14.17 0 0 55.63 -15.81 37.01 -26.12 0 0 0.85 0.95 95.96 -27.71 0 0 13.38 -6.45 19.17 -2.29 -0.46 1.83 -144.33 71.58 -171.00 -5.29 0 0 87.24 35.98 -0.68 -3.01 0 0 22.67 20.65 -11.14 -9.37 0.29 2.59 89.61 -12.29 -11.86 -4.34 0 0 94.87 -14.01 -13.12 -2.16 0 0 49.70 -4.53 -9.31 -9.47 0.83 0.29 89.01 -15.03 -12.00 -4.77 0 0 93.31 -17.09 -16.23 -2.87 0 0 42.96 -4.20 -12.43 -8.65 1.01 -1.70 90.42 -8.47 -11.72 -4.54 0 0 96.41 -10.06 -8.99 -2.50 0 0 41.52 -2.20 -7.05 -7.69 0.66 -3.90 87.99 -19.55 -12.31 -3.21 0 0 90.06 -21.69 -21.67 -1.92 0 0 41.11 -5.22 -15.67 8.73 -0 0 32.99 -28.12 37.05 0 -46.66 0 -2.20 45.20 -3.23 0 -40.14 0 -9.96 -14.24 30.92 0 -8.88 14.22 0 0 0 -8.73 0 -0 -11.43 -33.44 -13.68 0 -46.66 0 -9.66 44.12 -4.23 0 -40.14 0 16.44 -15.45 8.59 0 -8.88 14.22 0 0 0 
1.59 87.61 -2.85 2.57 10.86 -33.66 0 7.23 0 0.29 0.82 -0.34 0 16.54 0 0.13 3.50 -0.79 0 34.21 0 -11.40 40.08 8.74 0 6.29 0 -10.33 -22.55 20.30 4.06 26.61 -1.12 -7.48 -0.70 -13.43 14.17 0 0 -68.33 -36.43 -54.53 26.12 0 0 -0.83 1.09 -105.47 27.71 0 0 -32.74 -20.61 -37.15 2.29 -0.46 1.83 -34.50 82.28 -2.18 5.29 0 0 -58.93 -22.63 15.88 3.01 0 0 -14.63 -6.25 14.01 9.37 0.29 2.59 -95.00 -13.32 11.82 4.34 0 0 -92.51 -13.40 13.08 2.16 0 0 -48.54 -4.31 9.09 9.47 0.83 0.29 -94.39 -16.05 11.97 4.77 0 0 -91.00 -16.37 16.18 2.87 0 0 -41.82 -3.96 12.14 8.65 1.01 -1.70 -95.81 -9.49 11.66 4.54 0 0 -94.01 -9.61 8.96 2.50 0 0 -40.33 -2.07 6.85 7.69 0.66 -3.90 -91.90 -20.21 16.63 3.21 0 0 -89.29 -16.96 21.47 1.92 0 0 -40.01 -4.94 15.30 -4.06 26.61 -1.12 5.11 1.78 29.69 -14.17 0 0 57.39 -17.18 35.59 -26.12 0 0 0.86 0.89 92.13 -27.71 0 0 17.19 -7.43 18.33 -2.29 -0.46 1.83 -144.33 71.58 -171.00 -5.29 0 0 87.24 35.98 -0.68 -3.01 0 0 22.67 20.65 -11.14 -9.37 0.29 2.59 89.61 -12.29 -11.86 -4.34 0 0 94.87 -14.01 -13.12 -2.16 0 0 49.70 -4.53 -9.31 -9.47 0.83 0.29 89.01 -15.03 -12.00 -4.77 0 0 93.31 -17.09 -16.23 -2.87 0 0 42.96 -4.20 -12.43 -8.65 1.01 -1.70 90.42 -8.47 -11.72 -4.54 0 0 96.41 -10.06 -8.99 -2.50 0 0 41.52 -2.20 -7.05 -7.69 0.66 -3.90 87.99 -19.55 -12.31 -3.21 0 0 90.06 -21.69 -21.67 -1.92 0 0 41.11 -5.22 -15.67 8.73 -0 0 34.77 -30.28 39.12 0 -46.66 0 -2.49 47.85 -2.28 0 -40.14 0 -9.73 -15.29 29.91 0 -8.88 14.22 0 0 0 -8.73 0 -0 -11.78 -36.14 -13.69 0 -46.66 0 -9.74 45.63 -4.80 0 -40.14 0 16.87 -15.31 9.55 0 -8.88 14.22 0 0 -0 
2.52 86.91 -3.31 3.09 12.58 -32.22 0 7.23 0 0.35 1.05 -0.94 0 16.54 0 0.16 3.97 -2.06 0 34.21 0 -11.68 39.42 8.93 0 6.29 0 -10.66 -24.69 20.96 4.06 26.61 -1.12 -7.36 -0.69 -14.52 14.17 0 0 -70.72 -36.80 -57.36 26.12 0 0 -0.82 1.09 -105.71 27.71 0 0 -32.87 -21.12 -36.19 2.29 -0.46 1.83 -34.50 82.28 -2.18 5.29 0 0 -58.93 -22.63 15.88 3.01 0 0 -14.63 -6.25 14.01 9.37 0.29 2.59 -95.00 -13.32 11.82 4.34 0 0 -92.51 -13.40 13.08 2.16 0 0 -48.54 -4.31 9.09 9.47 0.83 0.29 -94.39 -16.05 11.97 4.77 0 0 -91.00 -16.37 16.18 2.87 0 0 -41.82 -3.96 12.14 8.65 1.01 -1.70 -95.81 -9.49 11.66 4.54 0 0 -94.01 -9.61 8.96 2.50 0 0 -40.33 -2.07 6.85 7.69 0.66 -3.90 -91.90 -20.21 16.63 3.21 0 0 -89.29 -16.96 21.47 1.92 0 0 -40.01 -4.94 15.30 -4.06 26.61 -1.12 5.68 2.04 29.18 -14.17 0 0 59.42 -18.93 33.61 -26.12 0 0 0.86 0.82 87.38 -27.71 0 0 20.99 -8.54 17.50 -2.29 -0.46 1.83 -144.33 71.58 -171.00 -5.29 0 0 87.24 35.98 -0.68 -3.01 0 0 22.67 20.65 -11.14 -9.37 0.29 2.59 89.61 -12.29 -11.86 -4.34 0 0 94.87 -14.01 -13.12 -2.16 0 0 49.70 -4.53 -9.31 -9.47 0.83 0.29 89.01 -15.03 -12.00 -4.77 0 0 93.31 -17.09 -16.23 -2.87 0 0 42.96 -4.20 -12.43 -8.65 1.01 -1.70 90.42 -8.47 -11.72 -4.54 0 0 96.41 -10.06 -8.99 -2.50 0 0 41.52 -2.20 -7.05 -7.69 0.66 -3.90 87.99 -19.55 -12.31 -3.21 0 0 90.06 -21.69 -21.67 -1.92 0 0 41.11 -5.22 -15.67 8.73 -0 0 36.07 -34.45 40.60 0 -46.66 0 -1.11 50.61 -3.56 0 -40.14 0 -9.89 -15.36 29.45 0 -8.88 14.22 0 0 -0 -8.73 0 -0 -13.70 -38.60 -15.61 0 -46.66 0 -8.73 47.35 -5.43 0 -40.14 0 17.10 -15.63 9.28 0 -8.88 14.22 0 0 0 
3.03 86.28 -3.64 3.22 14.07 -28.51 0 7.23 0 0.36 1.22 -1.67 0 16.54 0 0.16 4.30 -3.56 0 34.21 0 -11.53 39.03 8.74 0 6.29 0 -11.16 -26.24 20.32 4.06 26.61 -1.12 -7.32 -0.68 -15.43 14.17 0 0 -71.64 -36.45 -58.96 26.12 0 0 -0.82 1.09 -106.05 27.71 0 0 -32.89 -22.06 -34.37 2.29 -0.46 1.83 -34.50 82.28 -2.18 5.29 0 0 -58.93 -22.63 15.88 3.01 0 0 -14.63 -6.25 14.01 9.37 0.29 2.59 -95.00 -13.32 11.82 4.34 0 0 -92.51 -13.40 13.08 2.16 0 0 -48.54 -4.31 9.09 9.47 0.83 0.29 -94.39 -16.05 11.97 4.77 0 0 -91.00 -16.37 16.18 2.87 0 0 -41.82 -3.96 12.14 8.65 1.01 -1.70 -95.81 -9.49 11.66 4.54 0 0 -94.01 -9.61 8.96 2.50 0 0 -40.33 -2.07 6.85 7.69 0.66 -3.90 -91.90 -20.21 16.63 3.21 0 0 -89.29 -16.96 21.47 1.92 0 0 -40.01 -4.94 15.30 -4.06 26.61 -1.12 6.34 1.98 26.61 -14.17 0 0 61.12 -20.76 31.00 -26.12 0 0 0.85 0.74 82.4 -27.71 0 0 24.43 -9.54 16.65 -2.29 -0.46 1.83 -144.33 71.58 -171.00 -5.29 0 0 87.24 35.98 -0.68 -3.01 0 0 22.67 20.65 -11.14 -9.37 0.29 2.59 89.61 -12.29 -11.86 -4.34 0 0 94.87 -14.01 -13.12 -2.16 0 0 49.70 -4.53 -9.31 -9.47 0.83 0.29 89.01 -15.03 -12.00 -4.77 0 0 93.31 -17.09 -16.23 -2.87 0 0 42.96 -4.20 -12.43 -8.65 1.01 -1.70 90.42 -8.47 -11.72 -4.54 0 0 96.41 -10.06 -8.99 -2.50 0 0 41.52 -2.20 -7.05 -7.69 0.66 -3.90 87.99 -19.55 -12.31 -3.21 0 0 90.06 -21.69 -21.67 -1.92 0 0 41.11 -5.22 -15.67 8.73 -0 0 36.12 -39.32 41.11 0 -46.66 0 1.87 52.59 -6.96 0 -40.14 0 -9.50 -14.65 29.04 0 -8.88 14.22 0 0 0 -8.73 0 -0 -16.42 -39.80 -18.18 0 -46.66 0 -7.39 49.38 -6.53 0 -40.14 0 17.67 -16.80 7.89 0 -8.88 14.22 0 0 0 
2.95 85.82 -3.65 2.68 14.73 -21.61 0 7.23 0 0.30 1.56 -2.31 0 16.54 0 0.19 4.99 -4.85 0 34.21 0 -10.71 39.07 7.94 0 6.29 0 -11.48 -26.65 17.90 4.06 26.61 -1.12 -7.31 -0.65 -15.95 14.17 0 0 -70.75 -35.91 -59.17 26.12 0 0 -0.82 1.11 -107.39 27.71 0 0 -32.72 -23.36 -32.14 2.29 -0.46 1.83 -34.50 82.28 -2.18 5.29 0 0 -58.93 -22.63 15.88 3.01 0 0 -14.63 -6.25 14.01 9.37 0.29 2.59 -95.00 -13.32 11.82 4.34 0 0 -92.51 -13.40 13.08 2.16 0 0 -48.54 -4.31 9.09 9.47 0.83 0.29 -94.39 -16.05 11.97 4.77 0 0 -91.00 -16.37 16.18 2.87 0 0 -41.82 -3.96 12.14 8.65 1.01 -1.70 -95.81 -9.49 11.66 4.54 0 0 -94.01 -9.61 8.96 2.50 0 0 -40.33 -2.07 6.85 7.69 0.66 -3.90 -91.90 -20.21 16.63 3.21 0 0 -89.29 -16.96 21.47 1.92 0 0 -40.01 -4.94 15.30 -4.06 26.61 -1.12 7.20 1.27 21.34 -14.17 0 0 61.86 -22.38 27.67 -26.12 0 0 0.84 0.68 77.88 -27.71 0 0 27.27 -10.42 15.76 -2.29 -0.46 1.83 -144.33 71.58 -171.00 -5.29 0 0 87.24 35.98 -0.68 -3.01 0 0 22.67 20.65 -11.14 -9.37 0.29 2.59 89.61 -12.29 -11.86 -4.34 0 0 94.87 -14.01 -13.12 -2.16 0 0 49.70 -4.53 -9.31 -9.47 0.83 0.29 89.01 -15.03 -12.00 -4.77 0 0 93.31 -17.09 -16.23 -2.87 0 0 42.96 -4.20 -12.43 -8.65 1.01 -1.70 90.42 -8.47 -11.72 -4.54 0 0 96.41 -10.06 -8.99 -2.50 0 0 41.52 -2.20 -7.05 -7.69 0.66 -3.90 87.99 -19.55 -12.31 -3.21 0 0 90.06 -21.69 -21.67 -1.92 0 0 41.11 -5.22 -15.67 8.73 -0 0 33.92 -43.45 39.25 0 -46.66 0 3.30 52.78 -8.78 0 -40.14 0 -8.18 -14.13 26.46 0 -8.88 14.22 0 0 -0 -8.73 0 -0 -19.09 -38.66 -20.48 0 -46.66 0 -6.87 51.52 -6.83 0 -40.14 0 18.73 -19.45 4.00 0 -8.88 14.22 0 0 -0 
2.21 85.70 -3.16 1.45 15.47 -10.79 0 7.23 0 0.49 1.46 -2.67 0 16.54 0 0.77 4.77 -5.60 0 34.21 0 -9.11 39.57 6.40 0 6.29 0 -10.60 -25.85 13.19 4.06 26.61 -1.12 -7.15 -0.72 -15.84 14.17 0 0 -68.10 -34.53 -56.85 26.12 0 0 -0.81 1.12 -107.87 27.71 0 0 -32.48 -24.81 -30.13 2.29 -0.46 1.83 -34.50 82.28 -2.18 5.29 0 0 -58.93 -22.63 15.88 3.01 0 0 -14.63 -6.25 14.01 9.37 0.29 2.59 -95.00 -13.32 11.82 4.34 0 0 -92.51 -13.40 13.08 2.16 0 0 -48.54 -4.31 9.09 9.47 0.83 0.29 -94.39 -16.05 11.97 4.77 0 0 -91.00 -16.37 16.18 2.87 0 0 -41.82 -3.96 12.14 8.65 1.01 -1.70 -95.81 -9.49 11.66 4.54 0 0 -94.01 -9.61 8.96 2.50 0 0 -40.33 -2.07 6.85 7.69 0.66 -3.90 -91.90 -20.21 16.63 3.21 0 0 -89.29 -16.96 21.47 1.92 0 0 -40.01 -4.94 15.30 -4.06 26.61 -1.12 7.78 -0.30 13.13 -14.17 0 0 59.49 -23.49 22.87 -26.12 0 0 0.82 0.63 74.53 -27.71 0 0 29.41 -11.92 16.19 -2.29 -0.46 1.83 -144.33 71.58 -171.00 -5.29 0 0 87.24 35.98 -0.68 -3.01 0 0 22.67 20.65 -11.14 -9.37 0.29 2.59 89.61 -12.29 -11.86 -4.34 0 0 94.87 -14.01 -13.12 -2.16 0 0 49.70 -4.53 -9.31 -9.47 0.83 0.29 89.01 -15.03 -12.00 -4.77 0 0 93.31 -17.09 -16.23 -2.87 0 0 42.96 -4.20 -12.43 -8.65 1.01 -1.70 90.42 -8.47 -11.72 -4.54 0 0 96.41 -10.06 -8.99 -2.50 0 0 41.52 -2.20 -7.05 -7.69 0.66 -3.90 87.99 -19.55 -12.31 -3.21 0 0 90.06 -21.69 -21.67 -1.92 0 0 41.11 -5.22 -15.67 8.73 -0 0 28.98 -47.89 34.30 0 -46.66 0 3.90 51.24 -9.98 0 -40.14 0 -6.41 -12.83 21.97 0 -8.88 14.22 0 0 0 -8.73 0 -0 -21.13 -35.51 -23.09 0 -46.66 0 -6.42 53.51 -7.64 0 -40.14 0 18.48 -23.85 -2.08 0 -8.88 14.22 0 0 0 
